<svg width="25" height="25" viewBox="0 0 25 25" fill="none" xmlns="http://www.w3.org/2000/svg">
<g clip-path="url(#clip0_1_2)">
<path d="M9.51451 2.51953L8.45424 3.90625H16.5458L15.4855 2.51953C15.4018 2.41211 15.2623 2.34375 15.1116 2.34375H9.88281C9.73214 2.34375 9.59263 2.40723 9.50893 2.51953H9.51451ZM17.7176 1.2207L19.7656 3.90625H20.5357H23.2143H23.6607C24.4029 3.90625 25 4.42871 25 5.07812C25 5.72754 24.4029 6.25 23.6607 6.25H23.2143V21.0938C23.2143 23.252 21.2165 25 18.75 25H6.25C3.78348 25 1.78571 23.252 1.78571 21.0938V6.25H1.33929C0.597098 6.25 0 5.72754 0 5.07812C0 4.42871 0.597098 3.90625 1.33929 3.90625H1.78571H4.46429H5.23438L7.28237 1.21582C7.86272 0.458984 8.83929 0 9.88281 0H15.1116C16.1551 0 17.1317 0.458984 17.7121 1.21582L17.7176 1.2207ZM4.46429 6.25V21.0938C4.46429 21.958 5.26228 22.6562 6.25 22.6562H18.75C19.7377 22.6562 20.5357 21.958 20.5357 21.0938V6.25H4.46429ZM8.92857 9.375V19.5312C8.92857 19.9609 8.52679 20.3125 8.03571 20.3125C7.54464 20.3125 7.14286 19.9609 7.14286 19.5312V9.375C7.14286 8.94531 7.54464 8.59375 8.03571 8.59375C8.52679 8.59375 8.92857 8.94531 8.92857 9.375ZM13.3929 9.375V19.5312C13.3929 19.9609 12.9911 20.3125 12.5 20.3125C12.0089 20.3125 11.6071 19.9609 11.6071 19.5312V9.375C11.6071 8.94531 12.0089 8.59375 12.5 8.59375C12.9911 8.59375 13.3929 8.94531 13.3929 9.375ZM17.8571 9.375V19.5312C17.8571 19.9609 17.4554 20.3125 16.9643 20.3125C16.4732 20.3125 16.0714 19.9609 16.0714 19.5312V9.375C16.0714 8.94531 16.4732 8.59375 16.9643 8.59375C17.4554 8.59375 17.8571 8.94531 17.8571 9.375Z" fill="#498547"/>
</g>
<defs>
<clipPath id="clip0_1_2">
<rect width="25" height="25" fill="white"/>
</clipPath>
</defs>
</svg>
