<svg width="216" height="101" viewBox="0 0 216 101" fill="none" xmlns="http://www.w3.org/2000/svg">
<path d="M23.868 81.858C19.084 81.858 15.132 81.156 12.012 79.752C8.944 78.296 6.11 75.852 3.51 72.42L7.332 69.066C9.568 72.082 11.882 74.214 14.274 75.462C16.718 76.71 19.812 77.334 23.556 77.334C28.444 77.334 32.214 76.398 34.866 74.526C37.57 72.654 38.922 70.028 38.922 66.648C38.922 64.516 38.428 62.826 37.44 61.578C36.452 60.33 34.71 59.264 32.214 58.38C29.718 57.444 26.026 56.482 21.138 55.494C15.782 54.454 11.804 52.738 9.204 50.346C6.656 47.954 5.382 44.756 5.382 40.752C5.382 36.02 7.072 32.302 10.452 29.598C13.884 26.894 18.59 25.542 24.57 25.542C28.834 25.542 32.526 26.296 35.646 27.804C38.766 29.26 41.184 31.418 42.9 34.278L39.078 37.398C37.466 35.006 35.412 33.186 32.916 31.938C30.472 30.69 27.638 30.066 24.414 30.066C20.306 30.066 17.03 31.002 14.586 32.874C12.194 34.746 10.998 37.268 10.998 40.44C10.998 43.248 12.064 45.484 14.196 47.148C16.328 48.76 19.838 50.06 24.726 51.048C29.874 52.088 33.852 53.258 36.66 54.558C39.52 55.858 41.548 57.444 42.744 59.316C43.94 61.136 44.538 63.528 44.538 66.492C44.538 71.484 42.77 75.306 39.234 77.958C35.698 80.558 30.576 81.858 23.868 81.858Z" fill="#111111"/>
<path d="M55.6268 26.4H61.2428V81H55.6268V26.4ZM74.0909 42.702C74.0909 37.19 75.5469 33.108 78.4589 30.456C81.4229 27.752 85.9469 26.4 92.0309 26.4H110.829V30.924H92.0309C87.8189 30.924 84.6989 31.886 82.6709 33.81C80.6949 35.734 79.7069 38.698 79.7069 42.702V52.998H106.851V57.522H79.7069V81H74.0909V42.702ZM121.744 26.4H145.456C149.98 26.4 153.62 27.648 156.376 30.144C159.132 32.588 160.51 35.838 160.51 39.894C160.51 42.91 159.704 45.51 158.092 47.694C156.48 49.826 154.244 51.308 151.384 52.14C154.764 52.972 157.39 54.61 159.262 57.054C161.186 59.446 162.148 62.436 162.148 66.024C162.148 70.652 160.614 74.318 157.546 77.022C154.478 79.674 150.318 81 145.066 81H121.744V26.4ZM144.988 50.034C147.9 50.034 150.266 49.15 152.086 47.382C153.958 45.562 154.894 43.248 154.894 40.44C154.894 37.528 153.984 35.214 152.164 33.498C150.396 31.782 148.004 30.924 144.988 30.924H127.36V50.034H144.988ZM143.74 76.476C147.9 76.476 151.072 75.54 153.256 73.668C155.44 71.796 156.532 69.092 156.532 65.556C156.532 62.02 155.414 59.316 153.178 57.444C150.994 55.52 147.848 54.558 143.74 54.558H127.36V76.476H143.74ZM202.441 63.45H177.793L172.411 81H166.795L180.913 35.37C182.057 31.678 183.279 29.13 184.579 27.726C185.931 26.27 187.777 25.542 190.117 25.542C192.457 25.542 194.303 26.27 195.655 27.726C197.007 29.13 198.255 31.678 199.399 35.37L213.517 81H207.823L202.441 63.45ZM201.115 59.082L193.861 35.448C193.289 33.68 192.743 32.458 192.223 31.782C191.703 31.106 191.001 30.768 190.117 30.768C189.285 30.768 188.609 31.106 188.089 31.782C187.569 32.458 187.023 33.68 186.451 35.448L179.197 59.082H201.115Z" fill="#068813"/>
<circle cx="58.5" cy="8.5" r="7.5" fill="#C50000"/>
</svg>
